<svg width="20" height="20" viewBox="0 0 20 20" fill="none" xmlns="http://www.w3.org/2000/svg">
<path d="M9.99935 1.66669C5.40435 1.66669 1.66602 5.40502 1.66602 10C1.66602 14.595 5.40435 18.3334 9.99935 18.3334C14.5943 18.3334 18.3327 14.595 18.3327 10C18.3327 5.40502 14.5943 1.66669 9.99935 1.66669ZM10.8327 15H9.16602V13.3334H10.8327V15ZM11.646 10.9292C11.4827 11.0609 11.3252 11.1867 11.2002 11.3117C10.8602 11.6509 10.8335 11.9592 10.8327 11.9725V12.0834H9.16602V11.9442C9.16602 11.8459 9.19018 10.9634 10.021 10.1325C10.1835 9.97002 10.3852 9.80502 10.5968 9.63335C11.2085 9.13752 11.6102 8.77585 11.6102 8.27752C11.6005 7.85654 11.4264 7.45606 11.1252 7.16179C10.824 6.86751 10.4196 6.7028 9.99853 6.70291C9.57743 6.70302 9.1731 6.86794 8.87205 7.16237C8.571 7.4568 8.39715 7.85737 8.38768 8.27835H6.72102C6.72102 6.47085 8.19185 5.00002 9.99935 5.00002C11.8068 5.00002 13.2777 6.47085 13.2777 8.27835C13.2777 9.60919 12.2952 10.4034 11.646 10.9292Z" fill="#1C1621"/>
</svg>
